<?xml version="1.0" encoding="UTF-8" standalone="no"?>
<!-- Created with Inkscape (http://www.inkscape.org/) -->

<svg
   xmlns:dc="http://purl.org/dc/elements/1.1/"
   xmlns:cc="http://creativecommons.org/ns#"
   xmlns:rdf="http://www.w3.org/1999/02/22-rdf-syntax-ns#"
   xmlns:svg="http://www.w3.org/2000/svg"
   xmlns="http://www.w3.org/2000/svg"
   xmlns:xlink="http://www.w3.org/1999/xlink"
   xmlns:sodipodi="http://sodipodi.sourceforge.net/DTD/sodipodi-0.dtd"
   xmlns:inkscape="http://www.inkscape.org/namespaces/inkscape"
   width="128"
   height="128"
   id="svg2"
   version="1.1"
   inkscape:version="0.91pre2 r13516"
   viewBox="0 0 128 128"
   sodipodi:docname="icon.svg"
   inkscape:export-filename="X:\devel\svn\prepare\time-machine\icon.png"
   inkscape:export-xdpi="180"
   inkscape:export-ydpi="180">
  <title
     id="title3729">Stock Ticker logotype</title>
  <defs
     id="defs4" />
  <sodipodi:namedview
     id="base"
     pagecolor="#ffffff"
     bordercolor="#666666"
     borderopacity="1.0"
     inkscape:pageopacity="0.0"
     inkscape:pageshadow="2"
     inkscape:zoom="4.34375"
     inkscape:cx="64"
     inkscape:cy="64"
     inkscape:document-units="px"
     inkscape:current-layer="layer1"
     showgrid="false"
     inkscape:window-width="1366"
     inkscape:window-height="706"
     inkscape:window-x="-4"
     inkscape:window-y="-4"
     inkscape:window-maximized="1"
     showguides="true"
     inkscape:guide-bbox="true"
     inkscape:snap-bbox="true"
     inkscape:bbox-paths="true"
     inkscape:bbox-nodes="true"
     inkscape:snap-bbox-edge-midpoints="true"
     inkscape:snap-intersection-paths="true"
     inkscape:object-paths="true">
    <sodipodi:guide
       orientation="1,0"
       position="123,0"
       id="guide3361"
       inkscape:label=""
       inkscape:color="rgb(0,0,255)" />
    <sodipodi:guide
       orientation="0,1"
       position="0,5"
       id="guide3363"
       inkscape:label=""
       inkscape:color="rgb(0,0,255)" />
    <sodipodi:guide
       orientation="1,0"
       position="5,5"
       id="guide3377"
       inkscape:label=""
       inkscape:color="rgb(0,0,255)" />
    <sodipodi:guide
       orientation="0,1"
       position="5,123"
       id="guide3379"
       inkscape:label=""
       inkscape:color="rgb(0,0,255)" />
    <sodipodi:guide
       orientation="0,1"
       position="0,85"
       id="guide3727"
       inkscape:label=""
       inkscape:color="rgb(0,0,255)" />
  </sodipodi:namedview>
  <metadata
     id="metadata7">
    <rdf:RDF>
      <cc:Work
         rdf:about="">
        <dc:format>image/svg+xml</dc:format>
        <dc:type
           rdf:resource="http://purl.org/dc/dcmitype/StillImage" />
        <dc:title>Stock Ticker logotype</dc:title>
        <cc:license
           rdf:resource="http://creativecommons.org/licenses/by-nc-nd/3.0/" />
        <dc:date>2014/10/20</dc:date>
        <dc:creator>
          <cc:Agent>
            <dc:title>Aleksandar Urosevic</dc:title>
          </cc:Agent>
        </dc:creator>
        <dc:description>Logotype for WordPress plugin Stock Ticker</dc:description>
      </cc:Work>
      <cc:License
         rdf:about="http://creativecommons.org/licenses/by-nc-nd/3.0/">
        <cc:permits
           rdf:resource="http://creativecommons.org/ns#Reproduction" />
        <cc:permits
           rdf:resource="http://creativecommons.org/ns#Distribution" />
        <cc:requires
           rdf:resource="http://creativecommons.org/ns#Notice" />
        <cc:requires
           rdf:resource="http://creativecommons.org/ns#Attribution" />
        <cc:prohibits
           rdf:resource="http://creativecommons.org/ns#CommercialUse" />
      </cc:License>
    </rdf:RDF>
  </metadata>
  <g
     inkscape:label="Layer 1"
     inkscape:groupmode="layer"
     id="layer1"
     transform="translate(0,-924.3622)">
    <g
       id="g3739"
       transform="matrix(1,0,-0.41420319,0.58695652,423.0813,421.867)"
       inkscape:transform-center-x="-36.545632"
       inkscape:transform-center-y="-27.042254">
      <g
         id="g3753">
        <path
           sodipodi:nodetypes="cccccccc"
           inkscape:connector-curvature="0"
           id="path3731"
           transform="translate(0,924.3622)"
           d="M 5,5 5,85 18,85 30,97 42,85 85,85 85,5 Z"
           style="opacity:1;fill:#005c94;fill-opacity:1;stroke:none" />
        <g
           id="g3749">
          <path
             inkscape:connector-curvature="0"
             sodipodi:nodetypes="ccccccc"
             id="path3735"
             d="m 15,947.25692 0,7.36842 c 0,21.06237 13.78182,36.84211 36.74451,36.84211 -15.972903,-3.55288 -30.551226,-16.6677 -30.551226,-38.06604 21.366111,0.0282 34.008526,13.10597 38.017243,30.29404 0,-22.94477 -15.75562,-36.41706 -36.793308,-36.43853 l -7.417219,0 z"
             style="color:#000000;display:inline;overflow:visible;visibility:visible;fill:#ffffff;fill-opacity:1;fill-rule:nonzero;stroke:none;stroke-width:0.69724625;marker:none;enable-background:accumulate;opacity:0.5" />
          <path
             inkscape:connector-curvature="0"
             sodipodi:nodetypes="ccccccc"
             id="use3737"
             d="m 74.999996,991.46744 0,-7.36842 c 0,-21.06237 -13.78182,-36.84211 -36.74451,-36.84211 15.972903,3.55288 30.551226,16.6677 30.551226,38.06604 -21.366111,-0.0282 -34.008526,-13.10597 -38.017243,-30.29404 0,22.94477 15.75562,36.41706 36.793308,36.43853 l 7.417219,0 z"
             style="color:#000000;display:inline;overflow:visible;visibility:visible;fill:#ffffff;fill-opacity:1;fill-rule:nonzero;stroke:none;stroke-width:0.69724625;marker:none;enable-background:accumulate;opacity:0.5" />
        </g>
      </g>
    </g>
    <path
       style="opacity:1;fill:#19aeff;fill-opacity:1;stroke:none"
       d="M 5,5 5,85 18,85 30,97 42,85 85,85 85,5 Z"
       transform="translate(0,924.3622)"
       id="rect3703"
       inkscape:connector-curvature="0"
       sodipodi:nodetypes="cccccccc" />
    <g
       inkscape:export-ydpi="199.57146"
       inkscape:export-xdpi="199.57146"
       inkscape:export-filename="/home/urke/Documents/svg/urosevic_logo.png"
       transform="matrix(1.5615197,0,0,1.5615197,-29.259324,-464.37914)"
       id="g4523"
       style="opacity:1;fill:#ffffff;fill-opacity:1">
      <path
         style="color:#000000;display:inline;overflow:visible;visibility:visible;fill:#ffffff;fill-opacity:1;fill-rule:nonzero;stroke:none;stroke-width:0.69724625;marker:none;enable-background:accumulate"
         d="m 28.34375,18.1875 0,4.71875 C 28.34375,36.39463 37.169652,46.5 51.875,46.5 41.645924,44.224729 32.30994,35.82598 32.30994,22.12244 c 13.682896,0.01808 21.779121,8.393087 24.34631,19.400357 0,-14.693869 -10.089927,-23.321545 -23.5625,-23.335297 l -4.75,0 z"
         transform="translate(0,885.82675)"
         id="path4525"
         sodipodi:nodetypes="ccccccc"
         inkscape:connector-curvature="0" />
      <use
         x="0"
         y="0"
         xlink:href="#path4525"
         id="use4527"
         transform="matrix(-1,0,0,-1,95.111607,1836.341)"
         width="315.35431"
         height="166.53543"
         style="fill:#ffffff;fill-opacity:1" />
    </g>
    <g
       id="g4202"
       style="fill:#19aeff;fill-opacity:1">
      <path
         d="m 9.0060081,1047.1412 0,-11.2168 -4.0060088,0 0,-2.2839 10.7287367,0 0,2.2839 -3.9968,0 0,11.2168 -2.7259279,0 z"
         style="font-style:normal;font-variant:normal;font-weight:bold;font-stretch:normal;font-size:medium;line-height:125%;font-family:Arial;-inkscape-font-specification:'Arial Bold';letter-spacing:0px;word-spacing:0px;fill:#19aeff;fill-opacity:1;stroke:none;stroke-width:1px;stroke-linecap:butt;stroke-linejoin:miter;stroke-opacity:1"
         id="path4169"
         inkscape:connector-curvature="0" />
      <path
         d="m 17.745323,1036.0349 0,-2.3944 2.58779,0 0,2.3944 -2.58779,0 z m 0,11.1063 0,-9.7802 2.58779,0 0,9.7802 -2.58779,0 z"
         style="font-style:normal;font-variant:normal;font-weight:bold;font-stretch:normal;font-size:medium;line-height:125%;font-family:Arial;-inkscape-font-specification:'Arial Bold';letter-spacing:0px;word-spacing:0px;fill:#19aeff;fill-opacity:1;stroke:none;stroke-width:1px;stroke-linecap:butt;stroke-linejoin:miter;stroke-opacity:1"
         id="path4171"
         inkscape:connector-curvature="0" />
      <path
         d="m 22.349701,1037.361 2.385186,0 0,1.3354 q 1.280081,-1.5564 3.048251,-1.5564 0.93934,0 1.630031,0.3868 0.690691,0.3868 1.132733,1.1696 0.644646,-0.7828 1.390592,-1.1696 0.745946,-0.3868 1.593194,-0.3868 1.077479,0 1.823425,0.4421 0.745946,0.4328 1.114315,1.2801 0.267067,0.6262 0.267067,2.026 l 0,6.253 -2.587789,0 0,-5.59 q 0,-1.455 -0.267067,-1.8786 -0.35916,-0.5526 -1.105106,-0.5526 -0.543344,0 -1.022223,0.3315 -0.47888,0.3316 -0.690691,0.9762 -0.211812,0.6355 -0.211812,2.0168 l 0,4.6967 -2.58779,0 0,-5.3597 q 0,-1.4275 -0.138138,-1.8419 -0.138139,-0.4144 -0.432833,-0.617 -0.285486,-0.2026 -0.782784,-0.2026 -0.598599,0 -1.077478,0.3223 -0.478879,0.3224 -0.690691,0.9302 -0.202603,0.6078 -0.202603,2.0168 l 0,4.7519 -2.587789,0 0,-9.7802 z"
         style="font-style:normal;font-variant:normal;font-weight:bold;font-stretch:normal;font-size:medium;line-height:125%;font-family:Arial;-inkscape-font-specification:'Arial Bold';letter-spacing:0px;word-spacing:0px;fill:#19aeff;fill-opacity:1;stroke:none;stroke-width:1px;stroke-linecap:butt;stroke-linejoin:miter;stroke-opacity:1"
         id="path4173"
         inkscape:connector-curvature="0" />
      <path
         d="m 45.169903,1044.0285 2.578581,0.4329 q -0.497298,1.4182 -1.574776,2.1641 -1.068269,0.7368 -2.679882,0.7368 -2.550953,0 -3.775778,-1.6669 -0.966968,-1.3353 -0.966968,-3.3706 0,-2.4312 1.270872,-3.8034 1.270872,-1.3814 3.214016,-1.3814 2.182584,0 3.444247,1.4459 1.261662,1.4366 1.206407,4.4112 l -6.483288,0 q 0.02763,1.1511 0.626227,1.7958 0.598599,0.6354 1.491893,0.6354 0.607808,0 1.022223,-0.3315 0.414415,-0.3315 0.626226,-1.0683 z m 0.147348,-2.6154 q -0.02763,-1.1235 -0.580181,-1.7037 -0.552553,-0.5894 -1.344545,-0.5894 -0.847248,0 -1.399801,0.617 -0.552553,0.617 -0.543344,1.6761 l 3.867871,0 z"
         style="font-style:normal;font-variant:normal;font-weight:bold;font-stretch:normal;font-size:medium;line-height:125%;font-family:Arial;-inkscape-font-specification:'Arial Bold';letter-spacing:0px;word-spacing:0px;fill:#19aeff;fill-opacity:1;stroke:none;stroke-width:1px;stroke-linecap:butt;stroke-linejoin:miter;stroke-opacity:1"
         id="path4175"
         inkscape:connector-curvature="0" />
    </g>
    <g
       id="g4208"
       style="fill:#005c94;fill-opacity:1">
      <path
         d="m 49.905525,1047.1412 0,-13.5007 4.079682,0 2.449652,9.2092 2.422023,-9.2092 4.088892,0 0,13.5007 -2.532534,0 0,-10.6274 -2.679882,10.6274 -2.624626,0 -2.670673,-10.6274 0,10.6274 -2.532534,0 z"
         style="font-style:normal;font-variant:normal;font-weight:bold;font-stretch:normal;font-size:medium;line-height:125%;font-family:Arial;-inkscape-font-specification:'Arial Bold';letter-spacing:0px;word-spacing:0px;fill:#005c94;fill-opacity:1;stroke:none;stroke-width:1px;stroke-linecap:butt;stroke-linejoin:miter;stroke-opacity:1"
         id="path4177"
         inkscape:connector-curvature="0" />
      <path
         d="m 67.577781,1040.3448 -2.34835,-0.4236 q 0.395996,-1.4182 1.362964,-2.0997 0.966968,-0.6815 2.873275,-0.6815 1.731333,0 2.578581,0.4144 0.847248,0.4052 1.187989,1.0407 0.34995,0.6262 0.34995,2.3115 l -0.02763,3.0206 q 0,1.2893 0.11972,1.9063 0.128929,0.6078 0.46967,1.3077 l -2.560162,0 q -0.101301,-0.2578 -0.248649,-0.7643 -0.06446,-0.2303 -0.09209,-0.3039 -0.663064,0.6446 -1.418219,0.9669 -0.755156,0.3224 -1.611613,0.3224 -1.510311,0 -2.385187,-0.8197 -0.865666,-0.8196 -0.865666,-2.072 0,-0.8289 0.395996,-1.4735 0.395996,-0.6539 1.105106,-0.9946 0.718319,-0.35 2.062864,-0.6078 1.814216,-0.3408 2.514116,-0.6355 l 0,-0.2578 q 0,-0.746 -0.368368,-1.0591 -0.368369,-0.3223 -1.390592,-0.3223 -0.690691,0 -1.077478,0.2763 -0.386787,0.2671 -0.626227,0.9485 z m 3.462665,2.0997 q -0.497297,0.1658 -1.574776,0.396 -1.077478,0.2303 -1.40901,0.4513 -0.506506,0.3591 -0.506506,0.9117 0,0.5433 0.405205,0.9393 0.405206,0.396 1.031432,0.396 0.699901,0 1.335336,-0.4604 0.46967,-0.35 0.617018,-0.8565 0.101301,-0.3315 0.101301,-1.2616 l 0,-0.5158 z"
         style="font-style:normal;font-variant:normal;font-weight:bold;font-stretch:normal;font-size:medium;line-height:125%;font-family:Arial;-inkscape-font-specification:'Arial Bold';letter-spacing:0px;word-spacing:0px;fill:#005c94;fill-opacity:1;stroke:none;stroke-width:1px;stroke-linecap:butt;stroke-linejoin:miter;stroke-opacity:1"
         id="path4179"
         inkscape:connector-curvature="0" />
      <path
         d="m 85.259243,1040.2527 -2.550953,0.4605 q -0.128929,-0.7644 -0.589389,-1.1511 -0.451252,-0.3868 -1.17878,-0.3868 -0.966968,0 -1.547148,0.6722 -0.570972,0.6631 -0.570972,2.2287 0,1.7405 0.580181,2.4588 0.58939,0.7183 1.574776,0.7183 0.736737,0 1.206407,-0.4144 0.46967,-0.4236 0.663064,-1.4458 l 2.541743,0.4328 q -0.395996,1.7498 -1.519521,2.6431 -1.123524,0.8933 -3.011413,0.8933 -2.145747,0 -3.425828,-1.3538 -1.270872,-1.3538 -1.270872,-3.7481 0,-2.4221 1.280081,-3.7666 1.280081,-1.3538 3.462665,-1.3538 1.786588,0 2.836438,0.7736 1.05906,0.7644 1.519521,2.3391 z"
         style="font-style:normal;font-variant:normal;font-weight:bold;font-stretch:normal;font-size:medium;line-height:125%;font-family:Arial;-inkscape-font-specification:'Arial Bold';letter-spacing:0px;word-spacing:0px;fill:#005c94;fill-opacity:1;stroke:none;stroke-width:1px;stroke-linecap:butt;stroke-linejoin:miter;stroke-opacity:1"
         id="path4181"
         inkscape:connector-curvature="0" />
      <path
         d="m 89.992544,1033.6405 0,4.9638 q 1.252454,-1.4643 2.992995,-1.4643 0.893294,0 1.611613,0.3316 0.718319,0.3315 1.077478,0.8472 0.368369,0.5157 0.497298,1.1419 0.138138,0.6263 0.138138,1.9432 l 0,5.7373 -2.587789,0 0,-5.1663 q 0,-1.538 -0.147348,-1.9524 -0.147347,-0.4144 -0.524925,-0.6538 -0.368369,-0.2487 -0.930131,-0.2487 -0.644645,0 -1.151152,0.3131 -0.506507,0.3131 -0.745946,0.9486 -0.230231,0.6262 -0.230231,1.8602 l 0,4.8993 -2.587789,0 0,-13.5007 2.587789,0 z"
         style="font-style:normal;font-variant:normal;font-weight:bold;font-stretch:normal;font-size:medium;line-height:125%;font-family:Arial;-inkscape-font-specification:'Arial Bold';letter-spacing:0px;word-spacing:0px;fill:#005c94;fill-opacity:1;stroke:none;stroke-width:1px;stroke-linecap:butt;stroke-linejoin:miter;stroke-opacity:1"
         id="path4183"
         inkscape:connector-curvature="0" />
      <path
         d="m 98.326653,1036.0349 0,-2.3944 2.587787,0 0,2.3944 -2.587787,0 z m 0,11.1063 0,-9.7802 2.587787,0 0,9.7802 -2.587787,0 z"
         style="font-style:normal;font-variant:normal;font-weight:bold;font-stretch:normal;font-size:medium;line-height:125%;font-family:Arial;-inkscape-font-specification:'Arial Bold';letter-spacing:0px;word-spacing:0px;fill:#005c94;fill-opacity:1;stroke:none;stroke-width:1px;stroke-linecap:butt;stroke-linejoin:miter;stroke-opacity:1"
         id="path4185"
         inkscape:connector-curvature="0" />
      <path
         d="m 111.84554,1047.1412 -2.58779,0 0,-4.9914 q 0,-1.5839 -0.16577,-2.0444 -0.16576,-0.4697 -0.54334,-0.7275 -0.36837,-0.2579 -0.89329,-0.2579 -0.67228,0 -1.20641,0.3684 -0.53413,0.3683 -0.73674,0.9762 -0.19339,0.6078 -0.19339,2.247 l 0,4.4296 -2.58779,0 0,-9.7802 2.4036,0 0,1.4367 q 1.28009,-1.6577 3.22323,-1.6577 0.85646,0 1.56557,0.3131 0.70911,0.3039 1.06827,0.7828 0.36836,0.4789 0.5065,1.0867 0.14735,0.6078 0.14735,1.7406 l 0,6.078 z"
         style="font-style:normal;font-variant:normal;font-weight:bold;font-stretch:normal;font-size:medium;line-height:125%;font-family:Arial;-inkscape-font-specification:'Arial Bold';letter-spacing:0px;word-spacing:0px;fill:#005c94;fill-opacity:1;stroke:none;stroke-width:1px;stroke-linecap:butt;stroke-linejoin:miter;stroke-opacity:1"
         id="path4187"
         inkscape:connector-curvature="0" />
      <path
         d="m 120.28095,1044.0285 2.57858,0.4329 q -0.49729,1.4182 -1.57477,2.1641 -1.06827,0.7368 -2.67988,0.7368 -2.55096,0 -3.77578,-1.6669 -0.96697,-1.3353 -0.96697,-3.3706 0,-2.4312 1.27087,-3.8034 1.27087,-1.3814 3.21402,-1.3814 2.18258,0 3.44424,1.4459 1.26167,1.4366 1.20641,4.4112 l -6.48329,0 q 0.0276,1.1511 0.62623,1.7958 0.5986,0.6354 1.49189,0.6354 0.60781,0 1.02223,-0.3315 0.41441,-0.3315 0.62622,-1.0683 z m 0.14735,-2.6154 q -0.0276,-1.1235 -0.58018,-1.7037 -0.55255,-0.5894 -1.34455,-0.5894 -0.84724,0 -1.3998,0.617 -0.55255,0.617 -0.54334,1.6761 l 3.86787,0 z"
         style="font-style:normal;font-variant:normal;font-weight:bold;font-stretch:normal;font-size:medium;line-height:125%;font-family:Arial;-inkscape-font-specification:'Arial Bold';letter-spacing:0px;word-spacing:0px;fill:#005c94;fill-opacity:1;stroke:none;stroke-width:1px;stroke-linecap:butt;stroke-linejoin:miter;stroke-opacity:1"
         id="path4189"
         inkscape:connector-curvature="0" />
    </g>
  </g>
</svg>
